<?xml version="1.0" encoding="utf-8"?>
<!-- Generator: Adobe Illustrator 17.0.0, SVG Export Plug-In . SVG Version: 6.00 Build 0)  -->
<!DOCTYPE svg PUBLIC "-//W3C//DTD SVG 1.1//EN" "http://www.w3.org/Graphics/SVG/1.1/DTD/svg11.dtd">
<svg version="1.1" id="Layer_1" xmlns="http://www.w3.org/2000/svg" xmlns:xlink="http://www.w3.org/1999/xlink" x="0px" y="0px"
	 width="28px" height="28px" viewBox="0 0 28 28" enable-background="new 0 0 28 28" xml:space="preserve">
<path fill="#FFFFFF" d="M14,6.125H3.352l4.89-4.891L7,0L0,7l7,7l1.234-1.234L3.352,7.875H14V6.125z"/>
<path fill="#FFFFFF" d="M14,7.875h10.648l-4.89,4.891L21,14l7-7l-7-7l-1.234,1.234l4.882,4.891H14V7.875z"/>
<path fill="#636466" d="M14.005,21.875H3.348l4.896,4.891L6.999,28l-7.005-7l7.005-7l1.234,1.234l-4.886,4.891h10.658V21.875z"/>
<path fill="#636466" d="M13.995,20.125h10.658l-4.896-4.891L21,14l7.005,7L21,28l-1.234-1.234l4.886-4.891H13.995V20.125z"/>
</svg>
